<svg width="25" height="25" viewBox="0 0 25 25" fill="none" xmlns="http://www.w3.org/2000/svg">
<path fill-rule="evenodd" clip-rule="evenodd" d="M12.5 21.873C15.0461 21.873 17.4879 20.8615 19.2882 19.0612C21.0886 17.2608 22.1 14.8191 22.1 12.273C22.1 9.72689 21.0886 7.2851 19.2882 5.48475C17.4879 3.6844 15.0461 2.67297 12.5 2.67297C9.95395 2.67297 7.51215 3.6844 5.7118 5.48475C3.91145 7.2851 2.90002 9.72689 2.90002 12.273C2.90002 14.8191 3.91145 17.2608 5.7118 19.0612C7.51215 20.8615 9.95395 21.873 12.5 21.873ZM16.9484 10.7214C17.167 10.4951 17.288 10.1919 17.2852 9.87729C17.2825 9.56266 17.1563 9.26168 16.9338 9.03919C16.7113 8.8167 16.4103 8.6905 16.0957 8.68776C15.7811 8.68503 15.4779 8.80598 15.2516 9.02457L11.3 12.9762L9.74842 11.4246C9.5221 11.206 9.21898 11.085 8.90434 11.0878C8.58971 11.0905 8.28873 11.2167 8.06624 11.4392C7.84375 11.6617 7.71755 11.9627 7.71482 12.2773C7.71208 12.5919 7.83303 12.8951 8.05162 13.1214L10.4516 15.5214C10.6767 15.7463 10.9818 15.8727 11.3 15.8727C11.6182 15.8727 11.9234 15.7463 12.1484 15.5214L16.9484 10.7214Z" fill="#10B981"/>
</svg>
